<svg width="19" height="20" viewBox="0 0 19 20" fill="none" xmlns="http://www.w3.org/2000/svg">
<g clip-path="url(#clip0_15_655)">
<path d="M18.0954 3.9375V8.6546H13.3783" stroke="#C5C5C5" stroke-width="2" stroke-linecap="round" stroke-linejoin="round"/>
<path d="M0.799316 16.5165V11.7993H5.51642" stroke="#C5C5C5" stroke-width="2" stroke-linecap="round" stroke-linejoin="round"/>
<path d="M2.77264 7.86841C3.17137 6.74164 3.84903 5.73424 4.7424 4.94021C5.63576 4.14617 6.71572 3.59139 7.88149 3.32762C9.04726 3.06385 10.2609 3.09969 11.409 3.4318C12.5572 3.76391 13.6025 4.38146 14.4475 5.22683L18.0954 8.6546M0.799316 11.7993L4.44721 15.2271C5.29216 16.0725 6.33749 16.69 7.48566 17.0221C8.63384 17.3542 9.84743 17.3901 11.0132 17.1263C12.179 16.8625 13.2589 16.3078 14.1523 15.5137C15.0457 14.7197 15.7233 13.7123 16.122 12.5855" stroke="#C5C5C5" stroke-width="2" stroke-linecap="round" stroke-linejoin="round"/>
</g>
<defs>
<clipPath id="clip0_15_655">
<rect width="18.8684" height="18.8684" fill="white" transform="translate(0.0131836 0.792755)"/>
</clipPath>
</defs>
</svg>
